%TF.GenerationSoftware,Altium Limited,Altium Designer,25.2.1 (25)*%
G04 Layer_Color=0*
%FSLAX45Y45*%
%MOMM*%
%TF.SameCoordinates,FF9FD842-2901-413B-AB5E-982571B547E9*%
%TF.FilePolarity,Positive*%
%TF.FileFunction,Plated,1,2,PTH,Drill*%
%TF.Part,Single*%
G01*
G75*
%TA.AperFunction,ComponentDrill*%
%ADD74C,1.30000*%
%ADD75C,0.60000*%
%ADD76C,0.90000*%
%TA.AperFunction,ViaDrill,NotFilled*%
%ADD77C,0.30000*%
D74*
X8432420Y6436360D02*
D03*
X7932420D02*
D03*
D75*
X7899400Y8623300D02*
D03*
Y8750300D02*
D03*
Y8877300D02*
D03*
D76*
X11950700Y8229600D02*
D03*
Y8483600D02*
D03*
Y8737600D02*
D03*
Y8991600D02*
D03*
Y9245600D02*
D03*
Y9499600D02*
D03*
D77*
X9771380Y9710420D02*
D03*
X8473440Y9179560D02*
D03*
X11188700Y7526020D02*
D03*
X11727180Y7505700D02*
D03*
X9591040Y7848600D02*
D03*
X9067800Y8717280D02*
D03*
X10685780Y8034020D02*
D03*
X7995920Y8138160D02*
D03*
X10060940Y6875780D02*
D03*
X9616440Y6868160D02*
D03*
X9156700Y6858000D02*
D03*
X8470900Y9334500D02*
D03*
X9347200Y9677400D02*
D03*
X9766300Y9563100D02*
D03*
X9436100D02*
D03*
X10147300Y8331200D02*
D03*
X8826500Y7924800D02*
D03*
X10388600Y8961120D02*
D03*
X10020300Y7830820D02*
D03*
X9408160Y7665720D02*
D03*
X11315700Y8115300D02*
D03*
X10817860Y7175500D02*
D03*
X10375900Y7797800D02*
D03*
%TF.MD5,644336ad83d3bb853dbf8d2bd3fe5e08*%
M02*
