%TF.GenerationSoftware,Altium Limited,Altium Designer,25.2.1 (25)*%
G04 Layer_Color=8388736*
%FSLAX45Y45*%
%MOMM*%
%TF.SameCoordinates,FF9FD842-2901-413B-AB5E-982571B547E9*%
%TF.FilePolarity,Negative*%
%TF.FileFunction,Soldermask,Top*%
%TF.Part,Single*%
G01*
G75*
%TA.AperFunction,SMDPad,CuDef*%
G04:AMPARAMS|DCode=47|XSize=0.89mm|YSize=2.94mm|CornerRadius=0.26mm|HoleSize=0mm|Usage=FLASHONLY|Rotation=135.000|XOffset=0mm|YOffset=0mm|HoleType=Round|Shape=RoundedRectangle|*
%AMROUNDEDRECTD47*
21,1,0.89000,2.42000,0,0,135.0*
21,1,0.37000,2.94000,0,0,135.0*
1,1,0.52000,0.72478,0.98642*
1,1,0.52000,0.98642,0.72478*
1,1,0.52000,-0.72478,-0.98642*
1,1,0.52000,-0.98642,-0.72478*
%
%ADD47ROUNDEDRECTD47*%
G04:AMPARAMS|DCode=48|XSize=0.45mm|YSize=2.25mm|CornerRadius=0mm|HoleSize=0mm|Usage=FLASHONLY|Rotation=135.000|XOffset=0mm|YOffset=0mm|HoleType=Round|Shape=Round|*
%AMOVALD48*
21,1,1.80000,0.45000,0.00000,0.00000,225.0*
1,1,0.45000,0.63640,0.63640*
1,1,0.45000,-0.63640,-0.63640*
%
%ADD48OVALD48*%

G04:AMPARAMS|DCode=49|XSize=0.45mm|YSize=2.25mm|CornerRadius=0mm|HoleSize=0mm|Usage=FLASHONLY|Rotation=225.000|XOffset=0mm|YOffset=0mm|HoleType=Round|Shape=Round|*
%AMOVALD49*
21,1,1.80000,0.45000,0.00000,0.00000,315.0*
1,1,0.45000,-0.63640,0.63640*
1,1,0.45000,0.63640,-0.63640*
%
%ADD49OVALD49*%

G04:AMPARAMS|DCode=50|XSize=0.85mm|YSize=1.45mm|CornerRadius=0.25mm|HoleSize=0mm|Usage=FLASHONLY|Rotation=135.000|XOffset=0mm|YOffset=0mm|HoleType=Round|Shape=RoundedRectangle|*
%AMROUNDEDRECTD50*
21,1,0.85000,0.95000,0,0,135.0*
21,1,0.35000,1.45000,0,0,135.0*
1,1,0.50000,0.21213,0.45962*
1,1,0.50000,0.45962,0.21213*
1,1,0.50000,-0.21213,-0.45962*
1,1,0.50000,-0.45962,-0.21213*
%
%ADD50ROUNDEDRECTD50*%
G04:AMPARAMS|DCode=51|XSize=0.6mm|YSize=0.75mm|CornerRadius=0.1875mm|HoleSize=0mm|Usage=FLASHONLY|Rotation=90.000|XOffset=0mm|YOffset=0mm|HoleType=Round|Shape=RoundedRectangle|*
%AMROUNDEDRECTD51*
21,1,0.60000,0.37500,0,0,90.0*
21,1,0.22500,0.75000,0,0,90.0*
1,1,0.37500,0.18750,0.11250*
1,1,0.37500,0.18750,-0.11250*
1,1,0.37500,-0.18750,-0.11250*
1,1,0.37500,-0.18750,0.11250*
%
%ADD51ROUNDEDRECTD51*%
G04:AMPARAMS|DCode=52|XSize=0.6mm|YSize=0.75mm|CornerRadius=0.1875mm|HoleSize=0mm|Usage=FLASHONLY|Rotation=0.000|XOffset=0mm|YOffset=0mm|HoleType=Round|Shape=RoundedRectangle|*
%AMROUNDEDRECTD52*
21,1,0.60000,0.37500,0,0,0.0*
21,1,0.22500,0.75000,0,0,0.0*
1,1,0.37500,0.11250,-0.18750*
1,1,0.37500,-0.11250,-0.18750*
1,1,0.37500,-0.11250,0.18750*
1,1,0.37500,0.11250,0.18750*
%
%ADD52ROUNDEDRECTD52*%
G04:AMPARAMS|DCode=53|XSize=1.05mm|YSize=0.85mm|CornerRadius=0.25mm|HoleSize=0mm|Usage=FLASHONLY|Rotation=270.000|XOffset=0mm|YOffset=0mm|HoleType=Round|Shape=RoundedRectangle|*
%AMROUNDEDRECTD53*
21,1,1.05000,0.35000,0,0,270.0*
21,1,0.55000,0.85000,0,0,270.0*
1,1,0.50000,-0.17500,-0.27500*
1,1,0.50000,-0.17500,0.27500*
1,1,0.50000,0.17500,0.27500*
1,1,0.50000,0.17500,-0.27500*
%
%ADD53ROUNDEDRECTD53*%
G04:AMPARAMS|DCode=54|XSize=0.75mm|YSize=0.95mm|CornerRadius=0.225mm|HoleSize=0mm|Usage=FLASHONLY|Rotation=180.000|XOffset=0mm|YOffset=0mm|HoleType=Round|Shape=RoundedRectangle|*
%AMROUNDEDRECTD54*
21,1,0.75000,0.50000,0,0,180.0*
21,1,0.30000,0.95000,0,0,180.0*
1,1,0.45000,-0.15000,0.25000*
1,1,0.45000,0.15000,0.25000*
1,1,0.45000,0.15000,-0.25000*
1,1,0.45000,-0.15000,-0.25000*
%
%ADD54ROUNDEDRECTD54*%
G04:AMPARAMS|DCode=55|XSize=0.75mm|YSize=0.95mm|CornerRadius=0.225mm|HoleSize=0mm|Usage=FLASHONLY|Rotation=45.000|XOffset=0mm|YOffset=0mm|HoleType=Round|Shape=RoundedRectangle|*
%AMROUNDEDRECTD55*
21,1,0.75000,0.50000,0,0,45.0*
21,1,0.30000,0.95000,0,0,45.0*
1,1,0.45000,0.28284,-0.07071*
1,1,0.45000,0.07071,-0.28284*
1,1,0.45000,-0.28284,0.07071*
1,1,0.45000,-0.07071,0.28284*
%
%ADD55ROUNDEDRECTD55*%
G04:AMPARAMS|DCode=56|XSize=0.75mm|YSize=0.95mm|CornerRadius=0.225mm|HoleSize=0mm|Usage=FLASHONLY|Rotation=315.000|XOffset=0mm|YOffset=0mm|HoleType=Round|Shape=RoundedRectangle|*
%AMROUNDEDRECTD56*
21,1,0.75000,0.50000,0,0,315.0*
21,1,0.30000,0.95000,0,0,315.0*
1,1,0.45000,-0.07071,-0.28284*
1,1,0.45000,-0.28284,-0.07071*
1,1,0.45000,0.07071,0.28284*
1,1,0.45000,0.28284,0.07071*
%
%ADD56ROUNDEDRECTD56*%
%ADD57R,0.98000X0.78000*%
G04:AMPARAMS|DCode=58|XSize=0.55mm|YSize=0.75mm|CornerRadius=0.175mm|HoleSize=0mm|Usage=FLASHONLY|Rotation=180.000|XOffset=0mm|YOffset=0mm|HoleType=Round|Shape=RoundedRectangle|*
%AMROUNDEDRECTD58*
21,1,0.55000,0.40000,0,0,180.0*
21,1,0.20000,0.75000,0,0,180.0*
1,1,0.35000,-0.10000,0.20000*
1,1,0.35000,0.10000,0.20000*
1,1,0.35000,0.10000,-0.20000*
1,1,0.35000,-0.10000,-0.20000*
%
%ADD58ROUNDEDRECTD58*%
G04:AMPARAMS|DCode=59|XSize=1.6mm|YSize=0.6mm|CornerRadius=0.1875mm|HoleSize=0mm|Usage=FLASHONLY|Rotation=90.000|XOffset=0mm|YOffset=0mm|HoleType=Round|Shape=RoundedRectangle|*
%AMROUNDEDRECTD59*
21,1,1.60000,0.22500,0,0,90.0*
21,1,1.22500,0.60000,0,0,90.0*
1,1,0.37500,0.11250,0.61250*
1,1,0.37500,0.11250,-0.61250*
1,1,0.37500,-0.11250,-0.61250*
1,1,0.37500,-0.11250,0.61250*
%
%ADD59ROUNDEDRECTD59*%
G04:AMPARAMS|DCode=60|XSize=0.95mm|YSize=1.45mm|CornerRadius=0.275mm|HoleSize=0mm|Usage=FLASHONLY|Rotation=0.000|XOffset=0mm|YOffset=0mm|HoleType=Round|Shape=RoundedRectangle|*
%AMROUNDEDRECTD60*
21,1,0.95000,0.90000,0,0,0.0*
21,1,0.40000,1.45000,0,0,0.0*
1,1,0.55000,0.20000,-0.45000*
1,1,0.55000,-0.20000,-0.45000*
1,1,0.55000,-0.20000,0.45000*
1,1,0.55000,0.20000,0.45000*
%
%ADD60ROUNDEDRECTD60*%
G04:AMPARAMS|DCode=61|XSize=0.65mm|YSize=1.05mm|CornerRadius=0.2mm|HoleSize=0mm|Usage=FLASHONLY|Rotation=225.000|XOffset=0mm|YOffset=0mm|HoleType=Round|Shape=RoundedRectangle|*
%AMROUNDEDRECTD61*
21,1,0.65000,0.65000,0,0,225.0*
21,1,0.25000,1.05000,0,0,225.0*
1,1,0.40000,-0.31820,0.14142*
1,1,0.40000,-0.14142,0.31820*
1,1,0.40000,0.31820,-0.14142*
1,1,0.40000,0.14142,-0.31820*
%
%ADD61ROUNDEDRECTD61*%
G04:AMPARAMS|DCode=62|XSize=0.85mm|YSize=1.45mm|CornerRadius=0.25mm|HoleSize=0mm|Usage=FLASHONLY|Rotation=270.000|XOffset=0mm|YOffset=0mm|HoleType=Round|Shape=RoundedRectangle|*
%AMROUNDEDRECTD62*
21,1,0.85000,0.95000,0,0,270.0*
21,1,0.35000,1.45000,0,0,270.0*
1,1,0.50000,-0.47500,-0.17500*
1,1,0.50000,-0.47500,0.17500*
1,1,0.50000,0.47500,0.17500*
1,1,0.50000,0.47500,-0.17500*
%
%ADD62ROUNDEDRECTD62*%
G04:AMPARAMS|DCode=63|XSize=0.65mm|YSize=1.05mm|CornerRadius=0.2mm|HoleSize=0mm|Usage=FLASHONLY|Rotation=0.000|XOffset=0mm|YOffset=0mm|HoleType=Round|Shape=RoundedRectangle|*
%AMROUNDEDRECTD63*
21,1,0.65000,0.65000,0,0,0.0*
21,1,0.25000,1.05000,0,0,0.0*
1,1,0.40000,0.12500,-0.32500*
1,1,0.40000,-0.12500,-0.32500*
1,1,0.40000,-0.12500,0.32500*
1,1,0.40000,0.12500,0.32500*
%
%ADD63ROUNDEDRECTD63*%
G04:AMPARAMS|DCode=64|XSize=0.85mm|YSize=1.45mm|CornerRadius=0.25mm|HoleSize=0mm|Usage=FLASHONLY|Rotation=180.000|XOffset=0mm|YOffset=0mm|HoleType=Round|Shape=RoundedRectangle|*
%AMROUNDEDRECTD64*
21,1,0.85000,0.95000,0,0,180.0*
21,1,0.35000,1.45000,0,0,180.0*
1,1,0.50000,-0.17500,0.47500*
1,1,0.50000,0.17500,0.47500*
1,1,0.50000,0.17500,-0.47500*
1,1,0.50000,-0.17500,-0.47500*
%
%ADD64ROUNDEDRECTD64*%
G04:AMPARAMS|DCode=65|XSize=0.95mm|YSize=1.45mm|CornerRadius=0.275mm|HoleSize=0mm|Usage=FLASHONLY|Rotation=270.000|XOffset=0mm|YOffset=0mm|HoleType=Round|Shape=RoundedRectangle|*
%AMROUNDEDRECTD65*
21,1,0.95000,0.90000,0,0,270.0*
21,1,0.40000,1.45000,0,0,270.0*
1,1,0.55000,-0.45000,-0.20000*
1,1,0.55000,-0.45000,0.20000*
1,1,0.55000,0.45000,0.20000*
1,1,0.55000,0.45000,-0.20000*
%
%ADD65ROUNDEDRECTD65*%
G04:AMPARAMS|DCode=66|XSize=1.55mm|YSize=1.35mm|CornerRadius=0.375mm|HoleSize=0mm|Usage=FLASHONLY|Rotation=180.000|XOffset=0mm|YOffset=0mm|HoleType=Round|Shape=RoundedRectangle|*
%AMROUNDEDRECTD66*
21,1,1.55000,0.60000,0,0,180.0*
21,1,0.80000,1.35000,0,0,180.0*
1,1,0.75000,-0.40000,0.30000*
1,1,0.75000,0.40000,0.30000*
1,1,0.75000,0.40000,-0.30000*
1,1,0.75000,-0.40000,-0.30000*
%
%ADD66ROUNDEDRECTD66*%
G04:AMPARAMS|DCode=67|XSize=0.65mm|YSize=1.05mm|CornerRadius=0.2mm|HoleSize=0mm|Usage=FLASHONLY|Rotation=135.000|XOffset=0mm|YOffset=0mm|HoleType=Round|Shape=RoundedRectangle|*
%AMROUNDEDRECTD67*
21,1,0.65000,0.65000,0,0,135.0*
21,1,0.25000,1.05000,0,0,135.0*
1,1,0.40000,0.14142,0.31820*
1,1,0.40000,0.31820,0.14142*
1,1,0.40000,-0.14142,-0.31820*
1,1,0.40000,-0.31820,-0.14142*
%
%ADD67ROUNDEDRECTD67*%
%TA.AperFunction,ComponentPad*%
%ADD68C,2.10000*%
%ADD69R,1.15000X1.15000*%
%ADD70C,1.15000*%
%ADD71C,1.65000*%
%ADD72R,1.65000X1.65000*%
D47*
X8555287Y9580313D02*
D03*
X8843080Y9868105D02*
D03*
X8645090Y9490510D02*
D03*
X8932882Y9778303D02*
D03*
X8734892Y9400708D02*
D03*
X9022685Y9688500D02*
D03*
X8824695Y9310905D02*
D03*
X9112487Y9598698D02*
D03*
X8914498Y9221102D02*
D03*
X9202290Y9508895D02*
D03*
X9004300Y9131300D02*
D03*
X9292092Y9419092D02*
D03*
X9094103Y9041497D02*
D03*
X9381895Y9329290D02*
D03*
D48*
X9861341Y7999232D02*
D03*
X9825985Y8034587D02*
D03*
X9790630Y8069943D02*
D03*
X9755275Y8105298D02*
D03*
X9719919Y8140653D02*
D03*
X9684564Y8176009D02*
D03*
X9649209Y8211364D02*
D03*
X9613853Y8246719D02*
D03*
X9578498Y8282075D02*
D03*
X9543142Y8317430D02*
D03*
X9507787Y8352785D02*
D03*
X9472432Y8388141D02*
D03*
X10052259Y8967968D02*
D03*
X10087615Y8932613D02*
D03*
X10122970Y8897258D02*
D03*
X10158325Y8861902D02*
D03*
X10193681Y8826547D02*
D03*
X10229036Y8791191D02*
D03*
X10264391Y8755836D02*
D03*
X10299747Y8720481D02*
D03*
X10335102Y8685125D02*
D03*
X10370457Y8649770D02*
D03*
X10405813Y8614415D02*
D03*
X10441168Y8579059D02*
D03*
D49*
X9472432D02*
D03*
X9507787Y8614415D02*
D03*
X9543143Y8649770D02*
D03*
X9578498Y8685125D02*
D03*
X9613853Y8720481D02*
D03*
X9649209Y8755836D02*
D03*
X9684564Y8791191D02*
D03*
X9719919Y8826547D02*
D03*
X9755275Y8861902D02*
D03*
X9790630Y8897258D02*
D03*
X9825985Y8932613D02*
D03*
X9861341Y8967968D02*
D03*
X10441168Y8388141D02*
D03*
X10405813Y8352785D02*
D03*
X10370458Y8317430D02*
D03*
X10335102Y8282075D02*
D03*
X10299747Y8246719D02*
D03*
X10264391Y8211364D02*
D03*
X10229036Y8176009D02*
D03*
X10193681Y8140653D02*
D03*
X10158325Y8105298D02*
D03*
X10122970Y8069943D02*
D03*
X10087615Y8034587D02*
D03*
X10052259Y7999232D02*
D03*
D50*
X10460637Y7985267D02*
D03*
X10594987Y7850917D02*
D03*
X9838825Y9503275D02*
D03*
X9973175Y9368925D02*
D03*
D51*
X11036300Y7529360D02*
D03*
Y7629360D02*
D03*
D52*
X10567200Y7178040D02*
D03*
X10667200D02*
D03*
D53*
X10958900Y8417560D02*
D03*
X10808900D02*
D03*
D54*
X11619380Y7457440D02*
D03*
X11479380D02*
D03*
D55*
X10100343Y7761003D02*
D03*
X10199337Y7859997D02*
D03*
X10623583Y8111523D02*
D03*
X10722577Y8210517D02*
D03*
D56*
X9648223Y7915877D02*
D03*
X9747217Y7816883D02*
D03*
X9160601Y8695312D02*
D03*
X9259596Y8596317D02*
D03*
X10311097Y9031003D02*
D03*
X10212103Y9129997D02*
D03*
D57*
X9756140Y6878060D02*
D03*
Y6655060D02*
D03*
D58*
X8465100Y7683500D02*
D03*
X8375100D02*
D03*
X8465100Y7531100D02*
D03*
X8375100D02*
D03*
X8465100Y8737600D02*
D03*
X8375100D02*
D03*
X8465100Y8559800D02*
D03*
X8375100D02*
D03*
D59*
X8525800Y8360700D02*
D03*
X8590800D02*
D03*
X8655800D02*
D03*
X8720800D02*
D03*
Y7920700D02*
D03*
X8655800D02*
D03*
X8590800D02*
D03*
X8525800D02*
D03*
D60*
X7994900Y7917180D02*
D03*
X8184900D02*
D03*
X7997440Y8366760D02*
D03*
X8187440D02*
D03*
D61*
X9324647Y7742227D02*
D03*
X9430713Y7848293D02*
D03*
D62*
X11163300Y8311900D02*
D03*
Y8121900D02*
D03*
D63*
X11632000Y7924800D02*
D03*
X11482000D02*
D03*
D64*
X11479780Y7658100D02*
D03*
X11669780D02*
D03*
D65*
X9309100Y6864100D02*
D03*
Y6674100D02*
D03*
X10213340Y6869180D02*
D03*
Y6679180D02*
D03*
D66*
X10739900Y7666900D02*
D03*
X10519900Y7496900D02*
D03*
X10739900D02*
D03*
X10519900Y7666900D02*
D03*
D67*
X9260533Y9878367D02*
D03*
X9154467Y9984433D02*
D03*
D68*
X8432420Y6436360D02*
D03*
X7932420D02*
D03*
D69*
X7899400Y8623300D02*
D03*
D70*
Y8750300D02*
D03*
Y8877300D02*
D03*
D71*
X11950700Y8229600D02*
D03*
Y8483600D02*
D03*
Y8737600D02*
D03*
Y8991600D02*
D03*
Y9245600D02*
D03*
D72*
Y9499600D02*
D03*
%TF.MD5,245ff1da1f68164156ceb7daa64ad6b2*%
M02*
