%TF.GenerationSoftware,Altium Limited,Altium Designer,25.2.1 (25)*%
G04 Layer_Color=8421504*
%FSLAX45Y45*%
%MOMM*%
%TF.SameCoordinates,CA840FDA-0860-4236-828D-D9E1B559DD10*%
%TF.FilePolarity,Positive*%
%TF.FileFunction,Paste,Top*%
%TF.Part,Single*%
G01*
G75*
%TA.AperFunction,SMDPad,CuDef*%
G04:AMPARAMS|DCode=10|XSize=0.74mm|YSize=2.79mm|CornerRadius=0.185mm|HoleSize=0mm|Usage=FLASHONLY|Rotation=135.000|XOffset=0mm|YOffset=0mm|HoleType=Round|Shape=RoundedRectangle|*
%AMROUNDEDRECTD10*
21,1,0.74000,2.42000,0,0,135.0*
21,1,0.37000,2.79000,0,0,135.0*
1,1,0.37000,0.72478,0.98642*
1,1,0.37000,0.98642,0.72478*
1,1,0.37000,-0.72478,-0.98642*
1,1,0.37000,-0.98642,-0.72478*
%
%ADD10ROUNDEDRECTD10*%
G04:AMPARAMS|DCode=11|XSize=0.3mm|YSize=2.1mm|CornerRadius=0mm|HoleSize=0mm|Usage=FLASHONLY|Rotation=135.000|XOffset=0mm|YOffset=0mm|HoleType=Round|Shape=Round|*
%AMOVALD11*
21,1,1.80000,0.30000,0.00000,0.00000,225.0*
1,1,0.30000,0.63640,0.63640*
1,1,0.30000,-0.63640,-0.63640*
%
%ADD11OVALD11*%

G04:AMPARAMS|DCode=12|XSize=0.3mm|YSize=2.1mm|CornerRadius=0mm|HoleSize=0mm|Usage=FLASHONLY|Rotation=225.000|XOffset=0mm|YOffset=0mm|HoleType=Round|Shape=Round|*
%AMOVALD12*
21,1,1.80000,0.30000,0.00000,0.00000,315.0*
1,1,0.30000,-0.63640,0.63640*
1,1,0.30000,0.63640,-0.63640*
%
%ADD12OVALD12*%

G04:AMPARAMS|DCode=13|XSize=0.7mm|YSize=1.3mm|CornerRadius=0.175mm|HoleSize=0mm|Usage=FLASHONLY|Rotation=135.000|XOffset=0mm|YOffset=0mm|HoleType=Round|Shape=RoundedRectangle|*
%AMROUNDEDRECTD13*
21,1,0.70000,0.95000,0,0,135.0*
21,1,0.35000,1.30000,0,0,135.0*
1,1,0.35000,0.21213,0.45962*
1,1,0.35000,0.45962,0.21213*
1,1,0.35000,-0.21213,-0.45962*
1,1,0.35000,-0.45962,-0.21213*
%
%ADD13ROUNDEDRECTD13*%
G04:AMPARAMS|DCode=14|XSize=0.45mm|YSize=0.6mm|CornerRadius=0.1125mm|HoleSize=0mm|Usage=FLASHONLY|Rotation=90.000|XOffset=0mm|YOffset=0mm|HoleType=Round|Shape=RoundedRectangle|*
%AMROUNDEDRECTD14*
21,1,0.45000,0.37500,0,0,90.0*
21,1,0.22500,0.60000,0,0,90.0*
1,1,0.22500,0.18750,0.11250*
1,1,0.22500,0.18750,-0.11250*
1,1,0.22500,-0.18750,-0.11250*
1,1,0.22500,-0.18750,0.11250*
%
%ADD14ROUNDEDRECTD14*%
G04:AMPARAMS|DCode=15|XSize=0.45mm|YSize=0.6mm|CornerRadius=0.1125mm|HoleSize=0mm|Usage=FLASHONLY|Rotation=0.000|XOffset=0mm|YOffset=0mm|HoleType=Round|Shape=RoundedRectangle|*
%AMROUNDEDRECTD15*
21,1,0.45000,0.37500,0,0,0.0*
21,1,0.22500,0.60000,0,0,0.0*
1,1,0.22500,0.11250,-0.18750*
1,1,0.22500,-0.11250,-0.18750*
1,1,0.22500,-0.11250,0.18750*
1,1,0.22500,0.11250,0.18750*
%
%ADD15ROUNDEDRECTD15*%
G04:AMPARAMS|DCode=16|XSize=0.9mm|YSize=0.7mm|CornerRadius=0.175mm|HoleSize=0mm|Usage=FLASHONLY|Rotation=270.000|XOffset=0mm|YOffset=0mm|HoleType=Round|Shape=RoundedRectangle|*
%AMROUNDEDRECTD16*
21,1,0.90000,0.35000,0,0,270.0*
21,1,0.55000,0.70000,0,0,270.0*
1,1,0.35000,-0.17500,-0.27500*
1,1,0.35000,-0.17500,0.27500*
1,1,0.35000,0.17500,0.27500*
1,1,0.35000,0.17500,-0.27500*
%
%ADD16ROUNDEDRECTD16*%
G04:AMPARAMS|DCode=17|XSize=0.6mm|YSize=0.8mm|CornerRadius=0.15mm|HoleSize=0mm|Usage=FLASHONLY|Rotation=180.000|XOffset=0mm|YOffset=0mm|HoleType=Round|Shape=RoundedRectangle|*
%AMROUNDEDRECTD17*
21,1,0.60000,0.50000,0,0,180.0*
21,1,0.30000,0.80000,0,0,180.0*
1,1,0.30000,-0.15000,0.25000*
1,1,0.30000,0.15000,0.25000*
1,1,0.30000,0.15000,-0.25000*
1,1,0.30000,-0.15000,-0.25000*
%
%ADD17ROUNDEDRECTD17*%
G04:AMPARAMS|DCode=18|XSize=0.6mm|YSize=0.8mm|CornerRadius=0.15mm|HoleSize=0mm|Usage=FLASHONLY|Rotation=45.000|XOffset=0mm|YOffset=0mm|HoleType=Round|Shape=RoundedRectangle|*
%AMROUNDEDRECTD18*
21,1,0.60000,0.50000,0,0,45.0*
21,1,0.30000,0.80000,0,0,45.0*
1,1,0.30000,0.28284,-0.07071*
1,1,0.30000,0.07071,-0.28284*
1,1,0.30000,-0.28284,0.07071*
1,1,0.30000,-0.07071,0.28284*
%
%ADD18ROUNDEDRECTD18*%
G04:AMPARAMS|DCode=19|XSize=0.6mm|YSize=0.8mm|CornerRadius=0.15mm|HoleSize=0mm|Usage=FLASHONLY|Rotation=315.000|XOffset=0mm|YOffset=0mm|HoleType=Round|Shape=RoundedRectangle|*
%AMROUNDEDRECTD19*
21,1,0.60000,0.50000,0,0,315.0*
21,1,0.30000,0.80000,0,0,315.0*
1,1,0.30000,-0.07071,-0.28284*
1,1,0.30000,-0.28284,-0.07071*
1,1,0.30000,0.07071,0.28284*
1,1,0.30000,0.28284,0.07071*
%
%ADD19ROUNDEDRECTD19*%
%ADD20R,0.83000X0.63000*%
G04:AMPARAMS|DCode=21|XSize=0.4mm|YSize=0.6mm|CornerRadius=0.1mm|HoleSize=0mm|Usage=FLASHONLY|Rotation=180.000|XOffset=0mm|YOffset=0mm|HoleType=Round|Shape=RoundedRectangle|*
%AMROUNDEDRECTD21*
21,1,0.40000,0.40000,0,0,180.0*
21,1,0.20000,0.60000,0,0,180.0*
1,1,0.20000,-0.10000,0.20000*
1,1,0.20000,0.10000,0.20000*
1,1,0.20000,0.10000,-0.20000*
1,1,0.20000,-0.10000,-0.20000*
%
%ADD21ROUNDEDRECTD21*%
G04:AMPARAMS|DCode=22|XSize=1.45mm|YSize=0.45mm|CornerRadius=0.1125mm|HoleSize=0mm|Usage=FLASHONLY|Rotation=90.000|XOffset=0mm|YOffset=0mm|HoleType=Round|Shape=RoundedRectangle|*
%AMROUNDEDRECTD22*
21,1,1.45000,0.22500,0,0,90.0*
21,1,1.22500,0.45000,0,0,90.0*
1,1,0.22500,0.11250,0.61250*
1,1,0.22500,0.11250,-0.61250*
1,1,0.22500,-0.11250,-0.61250*
1,1,0.22500,-0.11250,0.61250*
%
%ADD22ROUNDEDRECTD22*%
G04:AMPARAMS|DCode=23|XSize=0.8mm|YSize=1.3mm|CornerRadius=0.2mm|HoleSize=0mm|Usage=FLASHONLY|Rotation=0.000|XOffset=0mm|YOffset=0mm|HoleType=Round|Shape=RoundedRectangle|*
%AMROUNDEDRECTD23*
21,1,0.80000,0.90000,0,0,0.0*
21,1,0.40000,1.30000,0,0,0.0*
1,1,0.40000,0.20000,-0.45000*
1,1,0.40000,-0.20000,-0.45000*
1,1,0.40000,-0.20000,0.45000*
1,1,0.40000,0.20000,0.45000*
%
%ADD23ROUNDEDRECTD23*%
G04:AMPARAMS|DCode=24|XSize=0.5mm|YSize=0.9mm|CornerRadius=0.125mm|HoleSize=0mm|Usage=FLASHONLY|Rotation=225.000|XOffset=0mm|YOffset=0mm|HoleType=Round|Shape=RoundedRectangle|*
%AMROUNDEDRECTD24*
21,1,0.50000,0.65000,0,0,225.0*
21,1,0.25000,0.90000,0,0,225.0*
1,1,0.25000,-0.31820,0.14142*
1,1,0.25000,-0.14142,0.31820*
1,1,0.25000,0.31820,-0.14142*
1,1,0.25000,0.14142,-0.31820*
%
%ADD24ROUNDEDRECTD24*%
G04:AMPARAMS|DCode=25|XSize=0.7mm|YSize=1.3mm|CornerRadius=0.175mm|HoleSize=0mm|Usage=FLASHONLY|Rotation=270.000|XOffset=0mm|YOffset=0mm|HoleType=Round|Shape=RoundedRectangle|*
%AMROUNDEDRECTD25*
21,1,0.70000,0.95000,0,0,270.0*
21,1,0.35000,1.30000,0,0,270.0*
1,1,0.35000,-0.47500,-0.17500*
1,1,0.35000,-0.47500,0.17500*
1,1,0.35000,0.47500,0.17500*
1,1,0.35000,0.47500,-0.17500*
%
%ADD25ROUNDEDRECTD25*%
G04:AMPARAMS|DCode=26|XSize=0.5mm|YSize=0.9mm|CornerRadius=0.125mm|HoleSize=0mm|Usage=FLASHONLY|Rotation=0.000|XOffset=0mm|YOffset=0mm|HoleType=Round|Shape=RoundedRectangle|*
%AMROUNDEDRECTD26*
21,1,0.50000,0.65000,0,0,0.0*
21,1,0.25000,0.90000,0,0,0.0*
1,1,0.25000,0.12500,-0.32500*
1,1,0.25000,-0.12500,-0.32500*
1,1,0.25000,-0.12500,0.32500*
1,1,0.25000,0.12500,0.32500*
%
%ADD26ROUNDEDRECTD26*%
G04:AMPARAMS|DCode=27|XSize=0.7mm|YSize=1.3mm|CornerRadius=0.175mm|HoleSize=0mm|Usage=FLASHONLY|Rotation=180.000|XOffset=0mm|YOffset=0mm|HoleType=Round|Shape=RoundedRectangle|*
%AMROUNDEDRECTD27*
21,1,0.70000,0.95000,0,0,180.0*
21,1,0.35000,1.30000,0,0,180.0*
1,1,0.35000,-0.17500,0.47500*
1,1,0.35000,0.17500,0.47500*
1,1,0.35000,0.17500,-0.47500*
1,1,0.35000,-0.17500,-0.47500*
%
%ADD27ROUNDEDRECTD27*%
G04:AMPARAMS|DCode=28|XSize=0.8mm|YSize=1.3mm|CornerRadius=0.2mm|HoleSize=0mm|Usage=FLASHONLY|Rotation=270.000|XOffset=0mm|YOffset=0mm|HoleType=Round|Shape=RoundedRectangle|*
%AMROUNDEDRECTD28*
21,1,0.80000,0.90000,0,0,270.0*
21,1,0.40000,1.30000,0,0,270.0*
1,1,0.40000,-0.45000,-0.20000*
1,1,0.40000,-0.45000,0.20000*
1,1,0.40000,0.45000,0.20000*
1,1,0.40000,0.45000,-0.20000*
%
%ADD28ROUNDEDRECTD28*%
G04:AMPARAMS|DCode=29|XSize=1.4mm|YSize=1.2mm|CornerRadius=0.3mm|HoleSize=0mm|Usage=FLASHONLY|Rotation=180.000|XOffset=0mm|YOffset=0mm|HoleType=Round|Shape=RoundedRectangle|*
%AMROUNDEDRECTD29*
21,1,1.40000,0.60000,0,0,180.0*
21,1,0.80000,1.20000,0,0,180.0*
1,1,0.60000,-0.40000,0.30000*
1,1,0.60000,0.40000,0.30000*
1,1,0.60000,0.40000,-0.30000*
1,1,0.60000,-0.40000,-0.30000*
%
%ADD29ROUNDEDRECTD29*%
G04:AMPARAMS|DCode=30|XSize=0.5mm|YSize=0.9mm|CornerRadius=0.125mm|HoleSize=0mm|Usage=FLASHONLY|Rotation=135.000|XOffset=0mm|YOffset=0mm|HoleType=Round|Shape=RoundedRectangle|*
%AMROUNDEDRECTD30*
21,1,0.50000,0.65000,0,0,135.0*
21,1,0.25000,0.90000,0,0,135.0*
1,1,0.25000,0.14142,0.31820*
1,1,0.25000,0.31820,0.14142*
1,1,0.25000,-0.14142,-0.31820*
1,1,0.25000,-0.31820,-0.14142*
%
%ADD30ROUNDEDRECTD30*%
D10*
X8555287Y9580313D02*
D03*
X8843080Y9868105D02*
D03*
X8645090Y9490510D02*
D03*
X8932882Y9778303D02*
D03*
X8734892Y9400708D02*
D03*
X9022685Y9688500D02*
D03*
X8824695Y9310905D02*
D03*
X9112487Y9598698D02*
D03*
X8914498Y9221102D02*
D03*
X9202290Y9508895D02*
D03*
X9004300Y9131300D02*
D03*
X9292092Y9419092D02*
D03*
X9094103Y9041497D02*
D03*
X9381895Y9329290D02*
D03*
D11*
X9861341Y7999232D02*
D03*
X9825985Y8034587D02*
D03*
X9790630Y8069943D02*
D03*
X9755275Y8105298D02*
D03*
X9719919Y8140653D02*
D03*
X9684564Y8176009D02*
D03*
X9649209Y8211364D02*
D03*
X9613853Y8246719D02*
D03*
X9578498Y8282075D02*
D03*
X9543142Y8317430D02*
D03*
X9507787Y8352785D02*
D03*
X9472432Y8388141D02*
D03*
X10052259Y8967968D02*
D03*
X10087615Y8932613D02*
D03*
X10122970Y8897258D02*
D03*
X10158325Y8861902D02*
D03*
X10193681Y8826547D02*
D03*
X10229036Y8791191D02*
D03*
X10264391Y8755836D02*
D03*
X10299747Y8720481D02*
D03*
X10335102Y8685125D02*
D03*
X10370457Y8649770D02*
D03*
X10405813Y8614415D02*
D03*
X10441168Y8579059D02*
D03*
D12*
X9472432D02*
D03*
X9507787Y8614415D02*
D03*
X9543143Y8649770D02*
D03*
X9578498Y8685125D02*
D03*
X9613853Y8720481D02*
D03*
X9649209Y8755836D02*
D03*
X9684564Y8791191D02*
D03*
X9719919Y8826547D02*
D03*
X9755275Y8861902D02*
D03*
X9790630Y8897258D02*
D03*
X9825985Y8932613D02*
D03*
X9861341Y8967968D02*
D03*
X10441168Y8388141D02*
D03*
X10405813Y8352785D02*
D03*
X10370458Y8317430D02*
D03*
X10335102Y8282075D02*
D03*
X10299747Y8246719D02*
D03*
X10264391Y8211364D02*
D03*
X10229036Y8176009D02*
D03*
X10193681Y8140653D02*
D03*
X10158325Y8105298D02*
D03*
X10122970Y8069943D02*
D03*
X10087615Y8034587D02*
D03*
X10052259Y7999232D02*
D03*
D13*
X10460637Y7985267D02*
D03*
X10594987Y7850917D02*
D03*
X9838825Y9503275D02*
D03*
X9973175Y9368925D02*
D03*
D14*
X11036300Y7529360D02*
D03*
Y7629360D02*
D03*
D15*
X10567200Y7178040D02*
D03*
X10667200D02*
D03*
D16*
X10958900Y8417560D02*
D03*
X10808900D02*
D03*
D17*
X11619380Y7457440D02*
D03*
X11479380D02*
D03*
D18*
X10100343Y7761003D02*
D03*
X10199337Y7859997D02*
D03*
X10623583Y8111523D02*
D03*
X10722577Y8210517D02*
D03*
D19*
X9648223Y7915877D02*
D03*
X9747217Y7816883D02*
D03*
X9160601Y8695312D02*
D03*
X9259596Y8596317D02*
D03*
X10311097Y9031003D02*
D03*
X10212103Y9129997D02*
D03*
D20*
X9756140Y6878060D02*
D03*
Y6655060D02*
D03*
D21*
X8465100Y7683500D02*
D03*
X8375100D02*
D03*
X8465100Y7531100D02*
D03*
X8375100D02*
D03*
X8465100Y8737600D02*
D03*
X8375100D02*
D03*
X8465100Y8559800D02*
D03*
X8375100D02*
D03*
D22*
X8525800Y8360700D02*
D03*
X8590800D02*
D03*
X8655800D02*
D03*
X8720800D02*
D03*
Y7920700D02*
D03*
X8655800D02*
D03*
X8590800D02*
D03*
X8525800D02*
D03*
D23*
X7994900Y7917180D02*
D03*
X8184900D02*
D03*
X7997440Y8366760D02*
D03*
X8187440D02*
D03*
D24*
X9324647Y7742227D02*
D03*
X9430713Y7848293D02*
D03*
D25*
X11163300Y8311900D02*
D03*
Y8121900D02*
D03*
D26*
X11632000Y7924800D02*
D03*
X11482000D02*
D03*
D27*
X11479780Y7658100D02*
D03*
X11669780D02*
D03*
D28*
X9309100Y6864100D02*
D03*
Y6674100D02*
D03*
X10213340Y6869180D02*
D03*
Y6679180D02*
D03*
D29*
X10739900Y7666900D02*
D03*
X10519900Y7496900D02*
D03*
X10739900D02*
D03*
X10519900Y7666900D02*
D03*
D30*
X9260533Y9878367D02*
D03*
X9154467Y9984433D02*
D03*
%TF.MD5,fcb1741e5a0303c06b46fe4bfe13c5f6*%
M02*
