M48
;Layer_Color=9474304
;FILE_FORMAT=2:4
INCH,LZ
;TYPE=PLATED
T01F00S00C0.0118
T02F00S00C0.0236
T03F00S00C0.0354
T04F00S00C0.0512
%
T01
X03605Y027
X03786Y02704
X03961Y02707
X03945Y03083
X04085Y0307
X03776Y0309
X03704Y03018
X03475Y0312
X04259Y02825
X04405Y02963
X04617Y02955
X04455Y03195
X04207Y03163
X03995Y0328
X0409Y03528
X03845Y03765
X03847Y03823
X0368Y0381
X03715Y03765
X03335Y03675
X03336Y03614
X0357Y03432
X03148Y03204
T02
X0311Y03395
Y03445
Y03495
T03
X04705Y0324
Y0334
Y0344
Y0354
Y0364
Y0374
T04
X033198Y02534
X03123
M30
